<svg xmlns="http://www.w3.org/2000/svg" width="20.792" height="14.619" viewBox="0 0 20.792 14.619">
  <path id="Icon_awesome-youtube" data-name="Icon awesome-youtube" d="M21.407,6.787a2.613,2.613,0,0,0-1.838-1.85C17.948,4.5,11.446,4.5,11.446,4.5s-6.5,0-8.123.437a2.613,2.613,0,0,0-1.838,1.85,27.406,27.406,0,0,0-.434,5.037,27.406,27.406,0,0,0,.434,5.037,2.574,2.574,0,0,0,1.838,1.821c1.621.437,8.123.437,8.123.437s6.5,0,8.123-.437a2.574,2.574,0,0,0,1.838-1.821,27.406,27.406,0,0,0,.434-5.037,27.406,27.406,0,0,0-.434-5.037ZM9.319,14.916V8.733l5.434,3.092L9.319,14.916Z" transform="translate(-1.05 -4.5)" fill="#fff"/>
</svg>
