<svg version="1.2" xmlns="http://www.w3.org/2000/svg" viewBox="0 0 18 19" width="18" height="19"><defs><clipPath clipPathUnits="userSpaceOnUse" id="cp1"><path d="m-319-652h430v1451h-430z"/></clipPath></defs><style>.a{fill:#fff}</style><g clip-path="url(#cp1)"><path class="a" d="m14.3 13.4c-0.7 0-1.4 0.3-1.8 0.8l-6.6-3.9q0.1-0.3 0.1-0.6 0-0.3-0.1-0.6l6.5-3.8c0.5 0.4 1.1 0.7 1.9 0.7 1.5 0 2.7-1.2 2.7-2.7 0-1.5-1.2-2.8-2.7-2.8-1.6 0-2.8 1.3-2.8 2.8q0 0.3 0.1 0.6l-6.5 3.8c-0.5-0.5-1.1-0.8-1.8-0.8-1.6 0-2.8 1.3-2.8 2.8 0 1.5 1.2 2.8 2.8 2.8 0.7 0 1.3-0.3 1.8-0.8l6.6 3.8q-0.1 0.3-0.1 0.6c0 1.5 1.2 2.7 2.7 2.7 1.4 0 2.6-1.2 2.6-2.7 0-1.4-1.2-2.7-2.6-2.7z"/></g></svg>