<svg version="1.2" xmlns="http://www.w3.org/2000/svg" viewBox="0 0 27 21" width="27" height="21"><defs><clipPath clipPathUnits="userSpaceOnUse" id="cp1"><path d="m-42-784h430v932h-430z"/></clipPath></defs><style>.a{fill:#fff}</style><g clip-path="url(#cp1)"><path fill-rule="evenodd" class="a" d="m26.9 7.9v5.1c0 4-5.9 7.2-13.1 7.2-7.3 0-13.2-3.2-13.2-7.2v-5.1c0-4.2 5.7-7.4 13.2-7.4 7.5 0 13.1 3.2 13.1 7.4zm-23 0q0 0.7 0.6 1.4c2.3-1.4 5.6-2.2 9.3-2.2 3.7 0 7 0.8 9.3 2.2q0.5-0.7 0.5-1.4c0-2.3-4.4-4.1-9.8-4.1-5.5 0-9.9 1.8-9.9 4.1zm9.9 4.1c2.7 0 5.2-0.4 6.9-1.2-1.7-0.7-4.1-1.2-6.9-1.2-2.8 0-5.2 0.5-7 1.2 1.8 0.8 4.2 1.2 7 1.2z"/></g></svg>