<svg xmlns="http://www.w3.org/2000/svg" width="15.445" height="15.445" viewBox="0 0 15.445 15.445">
  <g id="Icon_feather-instagram" data-name="Icon feather-instagram" transform="translate(1 1)">
    <path id="Path_1" data-name="Path 1" d="M6.361,3h6.723a3.361,3.361,0,0,1,3.361,3.361v6.723a3.361,3.361,0,0,1-3.361,3.361H6.361A3.361,3.361,0,0,1,3,13.084V6.361A3.361,3.361,0,0,1,6.361,3Z" transform="translate(-3 -3)" fill="none" stroke="#fff" stroke-linecap="round" stroke-linejoin="round" stroke-width="2"/>
    <path id="Path_2" data-name="Path 2" d="M17.414,14.23a2.689,2.689,0,1,1-2.266-2.266,2.689,2.689,0,0,1,2.266,2.266Z" transform="translate(-8.002 -7.93)" fill="none" stroke="#fff" stroke-linecap="round" stroke-linejoin="round" stroke-width="2"/>
    <path id="Path_3" data-name="Path 3" d="M26.25,9.75h0" transform="translate(-15.83 -6.725)" fill="none" stroke="#fff" stroke-linecap="round" stroke-linejoin="round" stroke-width="2"/>
  </g>
</svg>
